<svg xmlns="http://www.w3.org/2000/svg" viewBox="0 0 163.2 41.86"><defs><style>.cls-1,.cls-2,.cls-3{font-size:40.91px;font-family:Harabara, Harabara;}.cls-1,.cls-2{fill:#222f3f;}.cls-2{stroke:#222f3f;}.cls-2,.cls-3{stroke-miterlimit:10;}.cls-3,.cls-4{fill:#f85b52;}.cls-3{stroke:#f85b52;}.cls-5{fill:#142430;}</style></defs><title>logo_1</title><g id="Layer_2" data-name="Layer 2"><g id="Layer_1-2" data-name="Layer 1"><text class="cls-1" transform="translate(47.76 28.85)">S</text><text class="cls-2" transform="translate(95.76 28.85)">I</text><text class="cls-2" transform="translate(141.76 28.85)">E</text><text class="cls-2" transform="translate(105.76 28.85)">I</text><text class="cls-3" transform="translate(114.76 28.85)">K</text><g id="Play"><path class="cls-4" d="M26.9,20.32l-8.1-5.1A1.45,1.45,0,0,0,18,15.1a.79.79,0,0,0-.89.87V26.4a.8.8,0,0,0,.89.87,1.45,1.45,0,0,0,.76-.12L26.9,22c.67-.4.55-.86.55-.86S27.56,20.72,26.9,20.32Z"/></g><text class="cls-2" transform="translate(71.76 28.85)">P</text><path class="cls-5" d="M52.43,34.37a3.55,3.55,0,0,1,1.43.29,3.76,3.76,0,0,1,1.17.78,3.68,3.68,0,0,1,.79,1.17,3.68,3.68,0,0,1,0,2.86A3.68,3.68,0,0,1,55,40.64a3.77,3.77,0,0,1-1.17.79,3.66,3.66,0,0,1-2.86,0,3.67,3.67,0,0,1-1.95-2,3.68,3.68,0,0,1,0-2.86A3.66,3.66,0,0,1,51,34.66,3.55,3.55,0,0,1,52.43,34.37Zm0,5.65a1.92,1.92,0,0,0,.77-.16,2,2,0,0,0,.63-.42,2,2,0,0,0,.43-.63,2,2,0,0,0,0-1.54,2,2,0,0,0-1.06-1.05,2,2,0,0,0-1.54,0,2,2,0,0,0-.63.42,2,2,0,0,0-.42.63,2,2,0,0,0,0,1.54,2,2,0,0,0,1.05,1.05A1.92,1.92,0,0,0,52.43,40Z"/><path class="cls-5" d="M60.84,34.38h1.69v7.34H60.7l-2.4-4.28v4.28H56.61V34.4h1.84l2.39,4.27Z"/><path class="cls-5" d="M67.83,41.72H63.46V34.37h1.69V40h2.68Z"/><path class="cls-5" d="M70.21,41.72H68.52V34.37h1.69Z"/><path class="cls-5" d="M75.44,34.38h1.69v7.34H75.3l-2.4-4.28v4.28H71.21V34.4h1.84l2.39,4.27Z"/><path class="cls-5" d="M82.66,36.07h-3v1.11h2.45v1.69H79.64V40h3v1.69H78V34.39h4.71Z"/><path class="cls-5" d="M86.69,34.35a3.59,3.59,0,0,1,1.38.35,3.75,3.75,0,0,1,1.87,2,3.62,3.62,0,0,1,.28,1.41,3.55,3.55,0,0,1-.27,1.38,3.62,3.62,0,0,1-.75,1.13,3.67,3.67,0,0,1-1.12.79,3.77,3.77,0,0,1-1.39.33H85V34.34h1.69Zm0,5.67a2.1,2.1,0,0,0,.72-.21A2,2,0,0,0,88,39.4a1.89,1.89,0,0,0,.53-1.31A2,2,0,0,0,88,36.71a2.09,2.09,0,0,0-.58-.45,1.93,1.93,0,0,0-.72-.21Z"/><path class="cls-5" d="M92.29,41.72H90.6V34.37h1.69Z"/><path class="cls-5" d="M99.26,37.61v4.11h-1.7v-.18a3.13,3.13,0,0,1-.57.14,3.84,3.84,0,0,1-.58,0A3.74,3.74,0,0,1,95,41.46a3.59,3.59,0,0,1-1.22-.81,3.51,3.51,0,0,1-.8-1.21,3.76,3.76,0,0,1,0-2.77,3.5,3.5,0,0,1,.8-1.22A3.59,3.59,0,0,1,95,34.63a3.71,3.71,0,0,1,2.78,0,3.58,3.58,0,0,1,1.22.81l-1.2,1.2a1.91,1.91,0,0,0-.66-.43,2,2,0,0,0-1.5,0,1.91,1.91,0,0,0-.66.43,2,2,0,0,0,0,2.82,1.92,1.92,0,0,0,.58.4,2,2,0,0,0,.67.17,2.09,2.09,0,0,0,.68-.07,1.89,1.89,0,0,0,.63-.3V39.3H96.09V37.61Z"/><path class="cls-5" d="M101.75,41.72h-1.69V34.37h1.69Z"/><path class="cls-5" d="M107,34.35V36h-1.41v5.68h-1.69V36h-1.4V34.35Z"/><path class="cls-5" d="M111.88,41.72l-.29-.89h-2.31l-.3.89h-1.79l2.5-7.34h1.6l2.37,7.34Zm-2-2.58h1.19l-.58-1.78Z"/><path class="cls-5" d="M118.53,41.72h-4.37V34.37h1.69V40h2.68Z"/><path class="cls-5" d="M124.09,41.71a3.76,3.76,0,0,1-1.38-.27,3.51,3.51,0,0,1-1.21-.8,3.72,3.72,0,0,1-.79-1.2,3.67,3.67,0,0,1,.79-4,3.58,3.58,0,0,1,1.22-.81,3.73,3.73,0,0,1,1.38-.27,3.69,3.69,0,0,1,1.38.27,3.59,3.59,0,0,1,1.21.81l-1.19,1.19a1.91,1.91,0,0,0-.66-.44,2.06,2.06,0,0,0-.75-.14,2,2,0,0,0-.75.14,1.93,1.93,0,0,0-.66.44,2.1,2.1,0,0,0-.43.65,2,2,0,0,0-.15.76,1.92,1.92,0,0,0,.15.75,2.12,2.12,0,0,0,.43.64,1.93,1.93,0,0,0,.66.44,2,2,0,0,0,.75.14,2,2,0,0,0,.75-.14,1.91,1.91,0,0,0,.66-.44l1.19,1.2a3.52,3.52,0,0,1-1.21.8A3.74,3.74,0,0,1,124.09,41.71Z"/><path class="cls-5" d="M130.36,34.37a3.55,3.55,0,0,1,1.43.29,3.77,3.77,0,0,1,1.17.78,3.7,3.7,0,0,1,.79,1.17,3.68,3.68,0,0,1,0,2.86,3.7,3.7,0,0,1-.79,1.17,3.77,3.77,0,0,1-1.17.79,3.66,3.66,0,0,1-2.86,0,3.67,3.67,0,0,1-1.95-2,3.68,3.68,0,0,1,0-2.86,3.66,3.66,0,0,1,1.95-1.95A3.55,3.55,0,0,1,130.36,34.37Zm0,5.65a1.93,1.93,0,0,0,.77-.16,2,2,0,0,0,1.05-1.05,2,2,0,0,0,0-1.54,2,2,0,0,0-.42-.63,2,2,0,0,0-.63-.42,2,2,0,0,0-1.54,0,2,2,0,0,0-1.06,1.05,2,2,0,0,0,0,1.54,2,2,0,0,0,1.06,1.05A1.92,1.92,0,0,0,130.36,40Z"/><path class="cls-5" d="M137.33,41.72a2.77,2.77,0,0,1-2-.79,2.87,2.87,0,0,1-.62-.9,2.82,2.82,0,0,1-.22-1.07V34.37h1.69V39a1.05,1.05,0,0,0,.33.77,1.1,1.1,0,0,0,.78.31,1,1,0,0,0,.42-.09,1.17,1.17,0,0,0,.35-.24,1,1,0,0,0,.23-.35,1.14,1.14,0,0,0,.08-.43V34.37h1.69v4.54a2.65,2.65,0,0,1-.21,1.08,2.81,2.81,0,0,1-.59.89,2.85,2.85,0,0,1-.88.6,2.72,2.72,0,0,1-1.07.24Z"/><path class="cls-5" d="M143.34,39.82l-.26,0-.27,0v1.85h-1.69V34.41h1.69a3.29,3.29,0,0,1,2.14.82,2.73,2.73,0,0,1,.65.86,2.39,2.39,0,0,1,.23,1,2.42,2.42,0,0,1-.25,1.09,2.62,2.62,0,0,1-.7.87l1.62,2.62h-2Zm-.53-1.65a1.77,1.77,0,0,0,.51-.09,1.53,1.53,0,0,0,.43-.23,1.05,1.05,0,0,0,.29-.33.78.78,0,0,0,.11-.39.76.76,0,0,0-.11-.39,1.09,1.09,0,0,0-.29-.32,1.53,1.53,0,0,0-.43-.23,1.77,1.77,0,0,0-.51-.09Z"/><path class="cls-5" d="M149.43,41.86a2.59,2.59,0,0,1-.69-.09,2.34,2.34,0,0,1-.66-.29,2.46,2.46,0,0,1-.84-.91,2.51,2.51,0,0,1-.3-1.21h1.69a.73.73,0,0,0,.13.46A.93.93,0,0,0,149,40a.76.76,0,0,0,.39.13.89.89,0,0,0,.41-.08.66.66,0,0,0,.22-.15.78.78,0,0,0,.13-.17.48.48,0,0,0,.06-.17,1,1,0,0,0,0-.13,1.06,1.06,0,0,0,0-.13.52.52,0,0,0-.06-.17A.65.65,0,0,0,150,39a.87.87,0,0,0-.22-.16l-.24-.09-.26-.09-.52-.18a2.89,2.89,0,0,1-.54-.27,2.1,2.1,0,0,1-.59-.55,2.23,2.23,0,0,1-.34-.71,2.2,2.2,0,0,1-.07-.79,2.07,2.07,0,0,1,.23-.78,2.19,2.19,0,0,1,.45-.59,2.15,2.15,0,0,1,.6-.4,2.22,2.22,0,0,1,.71-.17,2.37,2.37,0,0,1,.77.07,2.24,2.24,0,0,1,.69.29,2.17,2.17,0,0,1,.53.47,2,2,0,0,1,.34.62,2.14,2.14,0,0,1,.12.71H150a.35.35,0,0,0-.15-.32,1,1,0,0,0-.25-.12h-.26a.58.58,0,0,0-.2.07.39.39,0,0,0-.16.17.45.45,0,0,0,0,.33.48.48,0,0,0,.2.27,2.13,2.13,0,0,0,.31.15l.36.13.34.11.35.14a2.35,2.35,0,0,1,1.4,2.17,2.32,2.32,0,0,1-.37,1.28,2.36,2.36,0,0,1-1,.88,2.39,2.39,0,0,1-.53.17A2.73,2.73,0,0,1,149.43,41.86Z"/><path class="cls-5" d="M157.22,36.07h-3v1.11h2.45v1.69H154.2V40h3v1.69h-4.71V34.39h4.71Z"/><path class="cls-5" d="M160.27,41.86a2.59,2.59,0,0,1-.69-.09,2.34,2.34,0,0,1-.66-.29,2.46,2.46,0,0,1-.84-.91,2.51,2.51,0,0,1-.3-1.21h1.69a.73.73,0,0,0,.13.46.93.93,0,0,0,.23.23.76.76,0,0,0,.39.13.89.89,0,0,0,.41-.08.66.66,0,0,0,.22-.15.78.78,0,0,0,.13-.17.48.48,0,0,0,.06-.17,1,1,0,0,0,0-.13,1.06,1.06,0,0,0,0-.13.52.52,0,0,0-.06-.17.65.65,0,0,0-.13-.17.87.87,0,0,0-.22-.16l-.24-.09-.26-.09-.52-.18a2.89,2.89,0,0,1-.54-.27,2.1,2.1,0,0,1-.59-.55,2.23,2.23,0,0,1-.34-.71,2.2,2.2,0,0,1-.07-.79,2.07,2.07,0,0,1,.23-.78,2.19,2.19,0,0,1,.45-.59,2.15,2.15,0,0,1,.6-.4,2.22,2.22,0,0,1,.71-.17,2.37,2.37,0,0,1,.77.07,2.24,2.24,0,0,1,.69.29,2.17,2.17,0,0,1,.53.47,2,2,0,0,1,.34.62,2.14,2.14,0,0,1,.12.71h-1.68a.35.35,0,0,0-.15-.32,1,1,0,0,0-.25-.12h-.26a.58.58,0,0,0-.2.07.39.39,0,0,0-.16.17.45.45,0,0,0,0,.33.48.48,0,0,0,.2.27,2.13,2.13,0,0,0,.31.15l.36.13.34.11.35.14a2.35,2.35,0,0,1,1.4,2.17,2.32,2.32,0,0,1-.37,1.28,2.36,2.36,0,0,1-1,.88,2.39,2.39,0,0,1-.53.17A2.73,2.73,0,0,1,160.27,41.86Z"/><path class="cls-4" d="M40.63,24.7,37.94,21a.69.69,0,0,1,0-.8l2.61-3.71a.69.69,0,0,0-.24-1l-4-2.13a.67.67,0,0,1-.35-.72l.74-4.48A.68.68,0,0,0,36,7.43L31.5,7.25a.68.68,0,0,1-.63-.49L29.6,2.39A.68.68,0,0,0,28.67,2L24.5,3.76a.71.71,0,0,1-.79-.17l-3-3.37a.69.69,0,0,0-1,0l-3,3.43a.67.67,0,0,1-.77.18L11.7,2.13a.68.68,0,0,0-.92.45L9.6,7A.7.7,0,0,1,9,7.47l-4.53.27a.69.69,0,0,0-.64.81L4.65,13a.68.68,0,0,1-.33.72l-4,2.21a.69.69,0,0,0-.22,1l2.69,3.66a.69.69,0,0,1,0,.8L.22,25.09a.69.69,0,0,0,.24,1l4,2.13a.67.67,0,0,1,.35.72l-.74,4.48a.68.68,0,0,0,.65.79l4.53.18a.68.68,0,0,1,.63.49l1.28,4.36a.68.68,0,0,0,.93.43l4.17-1.81A.71.71,0,0,1,17,38l3,3.37a.69.69,0,0,0,1,0l3-3.43a.67.67,0,0,1,.77-.18l4.2,1.72A.68.68,0,0,0,30,39l1.19-4.38a.7.7,0,0,1,.62-.51l4.53-.27a.69.69,0,0,0,.64-.81l-.83-4.46a.68.68,0,0,1,.33-.72l4-2.21A.66.66,0,0,0,40.63,24.7ZM20.42,33.13A12.31,12.31,0,1,1,32.7,20.79,12.33,12.33,0,0,1,20.42,33.13Z"/></g></g></svg>