<svg xmlns="http://www.w3.org/2000/svg" viewBox="0 0 309.1 160.51"><defs><style>.cls-1,.cls-3{fill:#222f3f;}.cls-1{stroke:#222f3f;stroke-width:3px;}.cls-1,.cls-2{stroke-miterlimit:10;}.cls-2,.cls-4{fill:#f85b52;}.cls-2{stroke:#f85b52;stroke-width:2px;}.cls-5{fill:#fff;}</style></defs><title>logo_1</title><g id="Layer_2" data-name="Layer 2"><g id="Layer_1-2" data-name="Layer 1"><path class="cls-1" d="M73.42,81.75a28.72,28.72,0,0,0-5.66-8A44.64,44.64,0,0,0,60,67.57L51.43,62.2a64.42,64.42,0,0,1-12-8.89q-5.11-4.87-5.11-12.75,0-7.05,4.09-9.74a18.26,18.26,0,0,1,10.2-2.68A20.6,20.6,0,0,1,59,30.49a6.3,6.3,0,0,0,3.15.84,5.65,5.65,0,0,0,3.9-1.51,4.6,4.6,0,0,0,1.67-3.53,4.72,4.72,0,0,0-2.22-3.94,18,18,0,0,0-5.39-2.52,41.79,41.79,0,0,0-6.59-1.34,49.36,49.36,0,0,0-5.84-.42,43.26,43.26,0,0,0-11,1.6,41.61,41.61,0,0,0-11.32,4.86,30.14,30.14,0,0,0-8.82,8.22A19.87,19.87,0,0,0,13,44.58a18.35,18.35,0,0,0,2.32,9.48,26.8,26.8,0,0,0,6,7c2.47,2.07,14.29,9.26,17.26,11.16a54.36,54.36,0,0,1,5.94,4.36,31.36,31.36,0,0,1,4.92,5.2,24.24,24.24,0,0,1,3.43,6.55,24.53,24.53,0,0,1,1.3,8.22q0,6.71-3.62,10.9t-12.9,4.2A44.32,44.32,0,0,1,23,109.18,36.3,36.3,0,0,1,11,102.47,5.64,5.64,0,0,0,7.07,101a5.82,5.82,0,0,0-3.9,1.43A4.54,4.54,0,0,0,1.5,106a4.64,4.64,0,0,0,1.67,3.53,43.33,43.33,0,0,0,15.5,9,57.93,57.93,0,0,0,19.21,3.28,54.59,54.59,0,0,0,13.36-1.68,38.1,38.1,0,0,0,12.07-5.29,29.79,29.79,0,0,0,8.81-9.14A24.65,24.65,0,0,0,75.56,92.4,24.46,24.46,0,0,0,73.42,81.75Z"/><path class="cls-1" d="M137.87,90.39a31.5,31.5,0,0,0-7.15-9.15,32.36,32.36,0,0,0-10.39-6.12,35.91,35.91,0,0,0-12.44-2.18,26.8,26.8,0,0,0-6.07.7,2.42,2.42,0,0,1-3-2.19c0-.26,0-.52-.07-.78a21.81,21.81,0,0,0-.74-4,7.2,7.2,0,0,0-1.86-3.19,5.13,5.13,0,0,0-3.71-1.26,6.88,6.88,0,0,0-5.66,3.1,27.27,27.27,0,0,0-3.9,8.06,65.37,65.37,0,0,0-2.41,11.07q-.84,6.13-1.3,12.17t-.56,11.24c-.06,3.47-.09,6.26-.09,8.39v6.63q0,4.11.18,8.8c.12,3.14.4,6.32.84,9.57a43.69,43.69,0,0,0,2,8.81,19.4,19.4,0,0,0,3.62,6.46A7.11,7.11,0,0,0,90.82,159a5.31,5.31,0,0,0,4.73-3,24.77,24.77,0,0,0,2.69-7.71A72.4,72.4,0,0,0,99.45,138c.18-3.75.28-7.36.28-10.83v-9.31a2.44,2.44,0,0,1,4.06-1.82,37.62,37.62,0,0,0,3.64,2.74,18.45,18.45,0,0,0,10.49,3q10,0,16.33-5.46t6.31-14.68A24.14,24.14,0,0,0,137.87,90.39Zm-14.72,19.18c-4.73,3.87-13.39,1.11-19.34-6.17s-6.93-16.32-2.2-20.19S115,82.11,121,89.39,127.89,105.7,123.15,109.57Z"/><path class="cls-1" d="M165.94,82.17a80.82,80.82,0,0,0-.92-9.4,8.28,8.28,0,0,0-1.86-4.11,5.28,5.28,0,0,0-4.27-1.76,8.69,8.69,0,0,0-7.42,3.86,27.37,27.37,0,0,0-4.18,9.06,60.07,60.07,0,0,0-1.85,10.49c-.32,3.52-.47,6.23-.47,8.13s.12,4,.37,6.71a34.91,34.91,0,0,0,1.58,7.72,16.07,16.07,0,0,0,3.71,6.29,8.72,8.72,0,0,0,6.59,2.61,5.66,5.66,0,0,0,4.55-1.85,12,12,0,0,0,2.32-4.19,27.73,27.73,0,0,0,1.21-5.29c.3-2.18.52-4.45.64-6.8s.19-4.61.19-6.79V91.56Q166.13,86.86,165.94,82.17Z"/><path class="cls-1" d="M192.93,82.17a80.85,80.85,0,0,0-.93-9.4,8.35,8.35,0,0,0-1.85-4.11,5.31,5.31,0,0,0-4.27-1.76,8.7,8.7,0,0,0-7.43,3.86,27.35,27.35,0,0,0-4.17,9.06,61,61,0,0,0-1.86,10.49q-.46,5.28-.46,8.13,0,2.68.37,6.71a34.35,34.35,0,0,0,1.58,7.72,16.07,16.07,0,0,0,3.71,6.29,8.71,8.71,0,0,0,6.59,2.61,5.65,5.65,0,0,0,4.54-1.85,11.89,11.89,0,0,0,2.32-4.19,26.28,26.28,0,0,0,1.21-5.29q.46-3.27.65-6.8c.12-2.35.19-4.61.19-6.79V91.56C193.12,88.43,193,85.3,192.93,82.17Z"/><path class="cls-1" d="M250.86,105.32a26.59,26.59,0,0,0-7.52-5.37,57.13,57.13,0,0,0-9.46-3.6,87.79,87.79,0,0,0-8.91-2.1c1.85-1.45,3.8-2.94,5.84-4.45s4-2.94,5.94-4.28,3.72-2.54,5.39-3.6,3.06-1.93,4.17-2.61a4.78,4.78,0,0,0,2.6-4.36,4.73,4.73,0,0,0-1.58-3.52,5.52,5.52,0,0,0-4-1.51,5.91,5.91,0,0,0-2.78.67q-1.86,1-4.55,2.77t-5.57,3.77q-2.88,2-5.84,4.28t-5.76,4.28c.12-3.24.22-6.68.28-10.32s.09-7.35.09-11.16q0-9.55-.09-19t-1-19a24.86,24.86,0,0,0-1.39-5.37c-.68-1.78-2.26-2.68-4.73-2.68a6.73,6.73,0,0,0-6,2.94A23.38,23.38,0,0,0,203.07,27a88.46,88.46,0,0,0-2.7,12.17q-1,6.63-1.57,13.51t-.65,13.59q-.11,6.71-.1,12.41,0,3.53.1,8.39c.06,3.25.21,6.6.46,10.07s.65,6.82,1.21,10.07a34.93,34.93,0,0,0,2.32,8.22q1.67,3.86,3.9,5.12a8.64,8.64,0,0,0,4.26,1.26,5.68,5.68,0,0,0,5.39-3,11.54,11.54,0,0,0,1.11-2.93,30.49,30.49,0,0,0,.56-3.11c.24-1.67.43-3.41.55-5.2,2.85,2,5.76,4,8.73,5.88s6,3.63,9.09,5.2a52.4,52.4,0,0,0,5.66,2.51,10.37,10.37,0,0,0,4.37.68q4.26-.18,6.21-2.86a10,10,0,0,0,2-6A10.56,10.56,0,0,0,250.86,105.32Z"/><path class="cls-1" d="M306,102.47a5.56,5.56,0,0,0-4-1.51,5.16,5.16,0,0,0-5,3,13.62,13.62,0,0,1-5.19,5.54,14.27,14.27,0,0,1-7.61,2.18,4.13,4.13,0,0,1-3.16-1.43,14.4,14.4,0,0,1-2.23-3.27,20.15,20.15,0,0,1-1.48-3.94c-.37-1.4-.62-2.49-.74-3.28a6.21,6.21,0,0,0,1.67.34A29.38,29.38,0,0,0,294.8,95a19.67,19.67,0,0,0,5.66-6,15,15,0,0,0,2.13-7.89A12.07,12.07,0,0,0,297,70.42a22.64,22.64,0,0,0-12.8-3.69A30.84,30.84,0,0,0,272.15,69,28,28,0,0,0,263,75.12a26.85,26.85,0,0,0-5.84,9,28.75,28.75,0,0,0-2,10.82,26.66,26.66,0,0,0,2.13,10.65,25.52,25.52,0,0,0,5.94,8.56,26.65,26.65,0,0,0,9.19,5.62,34.24,34.24,0,0,0,12.06,2,22.93,22.93,0,0,0,10.21-2.1,30.31,30.31,0,0,0,7-4.62,21.36,21.36,0,0,0,4.09-4.69,22.84,22.84,0,0,1,1.48-2.35,8.29,8.29,0,0,0,.37-2A4.73,4.73,0,0,0,306,102.47ZM277.16,86.7a33.22,33.22,0,0,1,1.49-4.45A13.81,13.81,0,0,1,281,78.39a4.21,4.21,0,0,1,3.25-1.59,13.55,13.55,0,0,1,4.82.92,3.53,3.53,0,0,1,2.41,3.61q0,2.85-3.34,5.79T278.28,90a7.24,7.24,0,0,0-1.86.17A32.82,32.82,0,0,1,277.16,86.7Z"/><path class="cls-2" d="M291.66,34.51a2.16,2.16,0,0,1,0-2.53l1.13-1.61a5.43,5.43,0,0,0-1.86-7.91l-1.73-.93a2.16,2.16,0,0,1-1.12-2.26l.33-1.94a5.42,5.42,0,0,0-5.1-6.31l-2-.08a2.15,2.15,0,0,1-2-1.56l-.57-1.87A5.43,5.43,0,0,0,271.42,4l-1.81.77a2.19,2.19,0,0,1-2.46-.55l-1.32-1.46a5.41,5.41,0,0,0-8.12.05l-1.28,1.49a2.2,2.2,0,0,1-2.46.58l-1.82-.74a5.53,5.53,0,0,0-2.06-.41,5.42,5.42,0,0,0-5.22,4l-.52,1.9a2.16,2.16,0,0,1-2,1.58l-2,.12a5.41,5.41,0,0,0-5,6.38l.36,1.93A2.16,2.16,0,0,1,234.7,22l-1.71,1a5.42,5.42,0,0,0-1.74,7.94l1.16,1.58a2.16,2.16,0,0,1,0,2.53l-1.13,1.61a5.43,5.43,0,0,0,1.86,7.91l1.73.93A2.16,2.16,0,0,1,236,47.68l-.33,1.94a5.42,5.42,0,0,0,5.1,6.31l2,.08a2.15,2.15,0,0,1,2,1.56l.55,1.89a5.43,5.43,0,0,0,7.35,3.47l1.81-.77a2.19,2.19,0,0,1,2.46.55l1.32,1.46a5.41,5.41,0,0,0,8.12-.05l1.29-1.49a2.2,2.2,0,0,1,2.46-.58l1.82.74a5.53,5.53,0,0,0,2.06.41,5.42,5.42,0,0,0,5.22-4l.52-1.9a2.16,2.16,0,0,1,2-1.58l2-.12a5.41,5.41,0,0,0,5-6.38l-.36-1.93A2.16,2.16,0,0,1,289.36,45l1.71-1a5.42,5.42,0,0,0,1.74-7.94Zm-1.1,5.25a2.15,2.15,0,0,1-1.06,1.42l-1.71,1a5.41,5.41,0,0,0-2.7,5.72l.36,1.93a2.12,2.12,0,0,1-.43,1.73,2.15,2.15,0,0,1-1.58.82l-2,.12a5.41,5.41,0,0,0-4.92,4L276,58.32a2.16,2.16,0,0,1-2.09,1.6,2.22,2.22,0,0,1-.82-.16L271.3,59a5.53,5.53,0,0,0-2.06-.41,5.44,5.44,0,0,0-4.09,1.86l-1.29,1.48a2.16,2.16,0,0,1-3.24,0L259.3,60.5a5.44,5.44,0,0,0-4-1.81,5.36,5.36,0,0,0-2.14.44l-1.81.77a2.12,2.12,0,0,1-.85.17,2.17,2.17,0,0,1-2.07-1.56l-.55-1.89a5.43,5.43,0,0,0-5-3.91l-2-.08a2.16,2.16,0,0,1-2-2.51l.33-1.94a5.41,5.41,0,0,0-2.79-5.68l-1.73-.93a2.13,2.13,0,0,1-1.09-1.41,2.08,2.08,0,0,1,.35-1.74l1.13-1.61A5.41,5.41,0,0,0,235,30.5l-1.16-1.58a2.09,2.09,0,0,1-.36-1.74,2.15,2.15,0,0,1,1.06-1.42l1.71-1a5.41,5.41,0,0,0,2.7-5.72l-.35-1.91a2.12,2.12,0,0,1,.43-1.73,2.15,2.15,0,0,1,1.58-.82l2-.12a5.42,5.42,0,0,0,4.92-4l.52-1.9A2.16,2.16,0,0,1,250.11,7a2.22,2.22,0,0,1,.82.16l1.82.74a5.53,5.53,0,0,0,2.06.41,5.44,5.44,0,0,0,4.09-1.86L260.2,5a2.16,2.16,0,0,1,3.24,0l1.32,1.46a5.44,5.44,0,0,0,4,1.81,5.36,5.36,0,0,0,2.14-.44L272.75,7a2.12,2.12,0,0,1,.85-.17,2.17,2.17,0,0,1,2.07,1.56l.55,1.89a5.43,5.43,0,0,0,5,3.91l2,.08a2.15,2.15,0,0,1,1.6.8,2.12,2.12,0,0,1,.45,1.71l-.33,1.94a5.41,5.41,0,0,0,2.79,5.68l1.73.93a2.16,2.16,0,0,1,.76,3.15L289,30.11a5.41,5.41,0,0,0,.05,6.33L290.23,38A2.34,2.34,0,0,1,290.55,39.77Z"/><rect class="cls-3" x="139.75" y="127.92" width="87.45" height="11.45" rx="5.73" ry="5.73"/><rect class="cls-4" x="1.5" y="127.92" width="70.2" height="11.45" rx="5.73" ry="5.73"/><rect class="cls-3" x="108.81" y="127.92" width="24.83" height="11.45" rx="5.73" ry="5.73"/><path class="cls-4" d="M281.09,33.18a19.07,19.07,0,1,0-18.76,19.36A19.07,19.07,0,0,0,281.09,33.18Zm-12.46,1.21L259.2,40.5a1.15,1.15,0,0,1-.63.19,1.18,1.18,0,0,1-1.2-1.17l-.2-11.92a1.2,1.2,0,0,1,.59-1,1.18,1.18,0,0,1,1.21,0l9.62,5.81a1.19,1.19,0,0,1,0,2Z"/><path class="cls-5" d="M125.15,109.57c-4.73,3.87-13.39,1.11-19.34-6.17s-6.93-16.32-2.2-20.19S117,82.11,123,89.39,129.89,105.7,125.15,109.57Z"/></g></g></svg>