<svg xmlns="http://www.w3.org/2000/svg" xmlns:xlink="http://www.w3.org/1999/xlink" viewBox="0 0 447.92 93.11"><defs><style>.cls-1{fill:none;stroke:#131314;stroke-miterlimit:10;stroke-width:4.27px;}.cls-2{fill:#d3d5f2;}.cls-3{fill:url(#New_Gradient_Swatch);}.cls-4{fill:#4656ce;}.cls-5{fill:#686a75;}</style><linearGradient id="New_Gradient_Swatch" x1="23.71" y1="46.98" x2="68.24" y2="46.98" gradientUnits="userSpaceOnUse"><stop offset="0" stop-color="#d4145a"/><stop offset="1" stop-color="#662d91"/></linearGradient></defs><title>va-logo</title><g id="Layer_2" data-name="Layer 2"><g id="Layer_1-2" data-name="Layer 1"><circle class="cls-1" cx="46.56" cy="46.56" r="44.42"/><circle class="cls-2" cx="45.98" cy="46.98" r="32.49"/><path class="cls-3" d="M62.46,26.2a4.7,4.7,0,0,0-3.63,1.72l0,0L54.9,31.81a7,7,0,0,1-.76-4,.74.74,0,0,0-1.31-.58L39.51,43.48,24,56a.74.74,0,0,0-.28.58A11.14,11.14,0,0,0,34.85,67.76a.74.74,0,0,0,.58-.28l10.77-13.3,3,3a.74.74,0,0,0,.52.22l.2,0a.74.74,0,0,0,.52-.54L51,54.27l2.54-.63a.74.74,0,0,0,.34-1.24L51,49.48,64.31,38.6l2-2a6.46,6.46,0,0,0,1.9-4.6A5.78,5.78,0,0,0,62.46,26.2Zm-4.6,4.74a4.43,4.43,0,0,0,2.91,3.89l-1.54,1.54a10.68,10.68,0,0,1-2.35-1.79,11.06,11.06,0,0,1-1.21-1.45ZM34.5,66.27A9.66,9.66,0,0,1,25.2,57L38.35,46.33l6.79,6.79ZM46.89,51l-.81,1L39.51,45.4l1-.81.11-.11,1.48-1.81,6.71,6.71L47,50.86Zm5.06,1.55-1.7.42a.74.74,0,0,0-.54.54l-.42,1.7L47.13,53,48,52l1.87-1.53Zm-2-4.09L43,41.51l9.64-11.78a10.79,10.79,0,0,0,3.16,5.9,10.8,10.8,0,0,0,5.9,3.16Zm15.33-12.9-1.84,1.84A6.59,6.59,0,0,1,60.7,37l2.13-2.13a.74.74,0,0,0-.52-1.27,3,3,0,0,1-3-3.26,3.08,3.08,0,0,1,3.11-2.67A4.3,4.3,0,0,1,66.76,32,5,5,0,0,1,65.29,35.52Z"/><path class="cls-4" d="M110.7,51.14h-4.06L96.18,22h6.11l6.37,19.44L115,22h6.07Z"/><path class="cls-4" d="M124.64,51.14V22h5.71V51.14Z"/><path class="cls-4" d="M142.8,51.14h-5.71V22H144a38.07,38.07,0,0,1,4.91.23,10.1,10.1,0,0,1,2.75.75,8.64,8.64,0,0,1,3.78,3.24,9,9,0,0,1,1.3,4.88,9,9,0,0,1-1.86,5.74,8.3,8.3,0,0,1-5.07,3l7.29,11.31h-6.81L142.8,37.6Zm0-15h1.26a9.17,9.17,0,0,0,5.26-1.25,4.17,4.17,0,0,0,1.79-3.65,4,4,0,0,0-1.5-3.42,8,8,0,0,0-4.68-1.1H142.8Z"/><path class="cls-4" d="M176.8,22v5.13h-5.48v24h-5.69v-24h-5.49V22Z"/><path class="cls-4" d="M181.36,22h5.71V38.8q0,3.94.83,5.48a3.42,3.42,0,0,0,5.71,0q.83-1.53.83-5.48V22h5.71v18.5a23.21,23.21,0,0,1-.34,4.63,7.59,7.59,0,0,1-1.14,2.7,8.56,8.56,0,0,1-3.28,3,11.73,11.73,0,0,1-9.25,0,8.56,8.56,0,0,1-3.28-3,7.61,7.61,0,0,1-1.14-2.6,22.91,22.91,0,0,1-.34-4.72Z"/><path class="cls-4" d="M211.1,45l-2.26,6.11h-5.91L214.24,22h4.93l11.15,29.15h-6.11L221.91,45ZM220,39.62l-3.44-9.39-3.52,9.39Z"/><path class="cls-4" d="M248.24,51.14H233.44V22h5.65V46h9.15Z"/><path d="M259.09,45l-2.26,6.11h-5.91L262.23,22h4.93l11.15,29.15h-6.11L269.9,45ZM268,39.62l-3.44-9.39-3.52,9.39Z"/><path d="M308.1,30.64h-7a8.09,8.09,0,0,0-3-2.52,8.72,8.72,0,0,0-3.89-.84,8.6,8.6,0,0,0-3.34.66,8.37,8.37,0,0,0-2.8,1.92,9.38,9.38,0,0,0-2,3.05,9.26,9.26,0,0,0-.71,3.55A9.38,9.38,0,0,0,288,43.18a8.34,8.34,0,0,0,6.3,2.71,9,9,0,0,0,3.85-.8,6.86,6.86,0,0,0,2.77-2.32h7a15.45,15.45,0,0,1-5.45,6.71,15.56,15.56,0,0,1-14.18,1,14.86,14.86,0,0,1-5-3.74,14.21,14.21,0,0,1-2.82-4.7,16.3,16.3,0,0,1-1-5.63,14.61,14.61,0,0,1,1.16-5.78,15.68,15.68,0,0,1,3.4-5,14.75,14.75,0,0,1,4.71-3.15,14.46,14.46,0,0,1,5.58-1.07,14.31,14.31,0,0,1,8.18,2.28A16.4,16.4,0,0,1,308.1,30.64Z"/><path d="M317.66,45l-2.26,6.11h-5.91L320.8,22h4.93l11.15,29.15h-6.11L328.47,45Zm8.93-5.41-3.44-9.39-3.52,9.39Z"/><path d="M349.91,51.14H340V22h9.75a20.48,20.48,0,0,1,6.35.8,11.39,11.39,0,0,1,4.32,2.68,13,13,0,0,1,3.12,4.84,18.14,18.14,0,0,1,1.06,6.39,16.41,16.41,0,0,1-1.48,7.1,13.17,13.17,0,0,1-4.3,5.16,10.18,10.18,0,0,1-3.58,1.68A22.64,22.64,0,0,1,349.91,51.14Zm-.36-5q4.74,0,7-2.32t2.24-7.27a9.72,9.72,0,0,0-2.45-7.07A9.12,9.12,0,0,0,349.47,27h-3.72V46.13Z"/><path d="M385.71,51.14H370V22h15.74v5.13H375.62v6.65h10.09v5H375.62V46h10.09Z"/><path d="M398,51.14h-5.65V22h7.55l7.41,21.2L414.7,22h7.55V51.14h-5.63l.2-21.16-7.37,21.16h-4.3L397.77,30Z"/><path d="M439.43,40.65V51.14h-5.71V40.65L425.38,22h6.27l5,12.55,5-12.55h6.23Z"/><path class="cls-5" d="M100.58,65.66a6.45,6.45,0,0,1,.51-2.55,6.65,6.65,0,0,1,1.49-2.17,6.46,6.46,0,0,1,2.07-1.39,6.36,6.36,0,0,1,2.45-.47,6.6,6.6,0,0,1,6.06,4,6.61,6.61,0,0,1,.49,2.56,7.15,7.15,0,0,1-.42,2.5A6.35,6.35,0,0,1,112,70.23a6.38,6.38,0,0,1-4.88,2.16,6.18,6.18,0,0,1-4.63-1.94A6.63,6.63,0,0,1,100.58,65.66Zm1.32,0a5.44,5.44,0,0,0,1.52,3.92,5,5,0,0,0,3.75,1.58,4.86,4.86,0,0,0,3.68-1.6,5.53,5.53,0,0,0,1.5-3.94,5.18,5.18,0,0,0-1.55-3.76,5,5,0,0,0-3.73-1.58,4.92,4.92,0,0,0-1.71.3,5,5,0,0,0-1.52.89,5.5,5.5,0,0,0-1.44,1.89A5.33,5.33,0,0,0,101.9,65.68Z"/><path class="cls-5" d="M115.82,62.47H117v1.1a3.58,3.58,0,0,1,1.32-1,4.78,4.78,0,0,1,3.61.08,3.16,3.16,0,0,1,1.31,1.13,3.59,3.59,0,0,1,.48,1.22,11,11,0,0,1,.14,2.06v5.05h-1.22V66.72a3.82,3.82,0,0,0-.66-2.49,2.6,2.6,0,0,0-2.1-.77,3.11,3.11,0,0,0-1.48.34,2.5,2.5,0,0,0-1,1,2.82,2.82,0,0,0-.32.9,11.49,11.49,0,0,0-.09,1.76v4.7h-1.2Z"/><path class="cls-5" d="M126.49,72.14V59.34h1.24v12.8Z"/><path class="cls-5" d="M131.61,61.33h-1.24v-2h1.24Zm-1.24,10.8V62.47h1.24v9.67Z"/><path class="cls-5" d="M134.22,62.47h1.2v1.1a3.58,3.58,0,0,1,1.32-1,4.78,4.78,0,0,1,3.61.08,3.16,3.16,0,0,1,1.31,1.13,3.59,3.59,0,0,1,.48,1.22,11,11,0,0,1,.14,2.06v5.05h-1.22V66.72a3.82,3.82,0,0,0-.66-2.49,2.6,2.6,0,0,0-2.1-.77,3.11,3.11,0,0,0-1.48.34,2.5,2.5,0,0,0-1,1,2.82,2.82,0,0,0-.32.9,11.49,11.49,0,0,0-.09,1.76v4.7h-1.2Z"/><path class="cls-5" d="M154.36,67.7h-8.73a3.75,3.75,0,0,0,1.14,2.55,3.59,3.59,0,0,0,2.57,1,3.53,3.53,0,0,0,2-.56,3.71,3.71,0,0,0,1.34-1.57h1.41a5.54,5.54,0,0,1-1.88,2.46,4.71,4.71,0,0,1-2.8.86,4.78,4.78,0,0,1-3.57-1.5,5.28,5.28,0,0,1,0-7.26,4.92,4.92,0,0,1,3.65-1.44A4.61,4.61,0,0,1,153,63.7a5.55,5.55,0,0,1,1.38,3.9ZM153,66.62a4.31,4.31,0,0,0-1.29-2.43,3.61,3.61,0,0,0-2.45-.82,3.44,3.44,0,0,0-2.38.88,3.81,3.81,0,0,0-1.2,2.37Z"/><path class="cls-5" d="M162.28,72.14V59.34h6.32V60.6h-5.08v4.48h5.08v1.27h-5.08v5.79Z"/><path class="cls-5" d="M172.34,72.14h-1.26V62.47h1.17v1.12a3.08,3.08,0,0,1,1-.94,2.7,2.7,0,0,1,1.26-.32v1.34a2.39,2.39,0,0,0-1.67.7,3,3,0,0,0-.51,1.93Z"/><path class="cls-5" d="M185.69,67.7H177a3.75,3.75,0,0,0,1.14,2.55,3.59,3.59,0,0,0,2.57,1,3.53,3.53,0,0,0,2-.56A3.71,3.71,0,0,0,184,69.09h1.41a5.54,5.54,0,0,1-1.88,2.46,4.71,4.71,0,0,1-2.8.86,4.78,4.78,0,0,1-3.57-1.5,5.28,5.28,0,0,1,0-7.26,4.92,4.92,0,0,1,3.65-1.44,4.61,4.61,0,0,1,3.56,1.5,5.55,5.55,0,0,1,1.38,3.9Zm-1.37-1.08A4.31,4.31,0,0,0,183,64.19a3.61,3.61,0,0,0-2.45-.82,3.44,3.44,0,0,0-2.38.88,3.81,3.81,0,0,0-1.2,2.37Z"/><path class="cls-5" d="M197.21,67.7h-8.73a3.75,3.75,0,0,0,1.14,2.55,3.59,3.59,0,0,0,2.57,1,3.53,3.53,0,0,0,2-.56,3.71,3.71,0,0,0,1.34-1.57h1.41A5.54,5.54,0,0,1,195,71.55a4.71,4.71,0,0,1-2.8.86,4.78,4.78,0,0,1-3.57-1.5,5.28,5.28,0,0,1,0-7.26,4.92,4.92,0,0,1,3.65-1.44,4.61,4.61,0,0,1,3.56,1.5,5.55,5.55,0,0,1,1.38,3.9Zm-1.37-1.08a4.31,4.31,0,0,0-1.29-2.43,3.61,3.61,0,0,0-2.45-.82,3.44,3.44,0,0,0-2.38.88,3.81,3.81,0,0,0-1.2,2.37Z"/><path class="cls-5" d="M199.26,72.14V59.34h1.24v12.8Z"/><path class="cls-5" d="M211.28,70.61a4,4,0,0,1-1.57,1.31,4.87,4.87,0,0,1-2.13.47A4.74,4.74,0,0,1,204,70.94a5.27,5.27,0,0,1,0-7.22,4.88,4.88,0,0,1,3.62-1.46,4.62,4.62,0,0,1,2,.45,4.08,4.08,0,0,1,1.55,1.3V62.47h1.21v9.67h-1.21Zm0-3.37a3.76,3.76,0,0,0-1.1-2.68,3.41,3.41,0,0,0-2.53-1.15A3.52,3.52,0,0,0,205,64.56a4,4,0,0,0-1.09,2.84A3.75,3.75,0,0,0,205,70.13a3.54,3.54,0,0,0,2.62,1.11,3.41,3.41,0,0,0,2.57-1.17A4,4,0,0,0,211.28,67.24Z"/><path class="cls-5" d="M215.07,62.47h1.2v1.1a3.58,3.58,0,0,1,1.32-1,4.78,4.78,0,0,1,3.61.08,3.16,3.16,0,0,1,1.31,1.13A3.59,3.59,0,0,1,223,65a11,11,0,0,1,.14,2.06v5.05h-1.22V66.72a3.82,3.82,0,0,0-.66-2.49,2.6,2.6,0,0,0-2.1-.77,3.11,3.11,0,0,0-1.48.34,2.5,2.5,0,0,0-1,1,2.82,2.82,0,0,0-.32.9,11.49,11.49,0,0,0-.09,1.76v4.7h-1.2Z"/><path class="cls-5" d="M233.46,65.44a4,4,0,0,0-1.39-1.56,3.67,3.67,0,0,0-2-.5,3.31,3.31,0,0,0-2.54,1.13,4,4,0,0,0-1,2.8,3.93,3.93,0,0,0,1,2.79,3.39,3.39,0,0,0,2.58,1.12,3.59,3.59,0,0,0,2-.55,3.49,3.49,0,0,0,1.31-1.56h1.37a4.94,4.94,0,0,1-1.77,2.43,5,5,0,0,1-6.38-.63,5.21,5.21,0,0,1,0-7.22,4.8,4.8,0,0,1,3.56-1.49,4.68,4.68,0,0,1,2.77.85,5.09,5.09,0,0,1,1.8,2.39Z"/><path class="cls-5" d="M238.5,61.33h-1.24v-2h1.24Zm-1.24,10.8V62.47h1.24v9.67Z"/><path class="cls-5" d="M241.12,62.47h1.2v1.1a3.58,3.58,0,0,1,1.32-1,4.78,4.78,0,0,1,3.61.08,3.16,3.16,0,0,1,1.31,1.13,3.59,3.59,0,0,1,.48,1.22,11,11,0,0,1,.14,2.06v5.05H248V66.72a3.82,3.82,0,0,0-.66-2.49,2.6,2.6,0,0,0-2.1-.77,3.11,3.11,0,0,0-1.48.34,2.5,2.5,0,0,0-1,1,2.82,2.82,0,0,0-.32.9,11.49,11.49,0,0,0-.09,1.76v4.7h-1.2Z"/><path class="cls-5" d="M253.43,72.93a2.42,2.42,0,0,0,1,1.31,3.28,3.28,0,0,0,1.79.47,3.41,3.41,0,0,0,2.65-1.1,4.2,4.2,0,0,0,1-2.94v-.25a4.92,4.92,0,0,1-1.6,1.45,4.08,4.08,0,0,1-2,.49,4.89,4.89,0,0,1-3.62-1.45,5.25,5.25,0,0,1,0-7.21,5.11,5.11,0,0,1,5.64-1A4.37,4.37,0,0,1,259.89,64V62.47h1.21v8.07a5.74,5.74,0,0,1-1.27,4,4.45,4.45,0,0,1-3.5,1.42,4.85,4.85,0,0,1-2.82-.81A3.65,3.65,0,0,1,252,72.93Zm-.86-5.7a4,4,0,0,0,1.08,2.84,3.44,3.44,0,0,0,5.13,0,3.77,3.77,0,0,0,1.1-2.69,4,4,0,0,0-1.08-2.82,3.36,3.36,0,0,0-2.55-1.17,3.49,3.49,0,0,0-2.59,1.11A3.77,3.77,0,0,0,252.57,67.22Z"/><path class="cls-5" d="M277.5,70.61a4,4,0,0,1-1.57,1.31,4.87,4.87,0,0,1-2.13.47,4.74,4.74,0,0,1-3.54-1.45,5.27,5.27,0,0,1,0-7.22,4.88,4.88,0,0,1,3.62-1.46,4.62,4.62,0,0,1,2,.45A4.08,4.08,0,0,1,277.5,64V62.47h1.21v9.67H277.5Zm0-3.37a3.76,3.76,0,0,0-1.1-2.68,3.41,3.41,0,0,0-2.53-1.15,3.52,3.52,0,0,0-2.65,1.15,4,4,0,0,0-1.09,2.84,3.75,3.75,0,0,0,1.09,2.73,3.54,3.54,0,0,0,2.62,1.11,3.41,3.41,0,0,0,2.57-1.17A4,4,0,0,0,277.5,67.24Z"/><path class="cls-5" d="M281.28,62.47h1.2v1.1a3.58,3.58,0,0,1,1.32-1,4.78,4.78,0,0,1,3.61.08,3.16,3.16,0,0,1,1.31,1.13,3.59,3.59,0,0,1,.48,1.22,11,11,0,0,1,.14,2.06v5.05h-1.22V66.72a3.82,3.82,0,0,0-.66-2.49,2.6,2.6,0,0,0-2.1-.77,3.11,3.11,0,0,0-1.48.34,2.5,2.5,0,0,0-1,1,2.82,2.82,0,0,0-.32.9,11.49,11.49,0,0,0-.09,1.76v4.7h-1.2Z"/><path class="cls-5" d="M300.07,64V59.34h1.25v12.8h-1.25V70.68a4.49,4.49,0,0,1-1.62,1.26,4.79,4.79,0,0,1-2,.45,4.72,4.72,0,0,1-3.52-1.48,5,5,0,0,1-1.43-3.62,4.94,4.94,0,0,1,1.42-3.58,4.74,4.74,0,0,1,3.54-1.46,4.81,4.81,0,0,1,2.08.44A4.3,4.3,0,0,1,300.07,64Zm0,3.4A4,4,0,0,0,299,64.58a3.42,3.42,0,0,0-2.57-1.17,3.54,3.54,0,0,0-2.62,1.11,3.74,3.74,0,0,0-1.09,2.72,4,4,0,0,0,1.09,2.85,3.52,3.52,0,0,0,2.65,1.15A3.4,3.4,0,0,0,299,70.09,3.77,3.77,0,0,0,300.1,67.4Z"/><path class="cls-5" d="M309.77,59.34h2.38a5.06,5.06,0,0,1,3.19.82,3.63,3.63,0,0,1,.68,4.06,2.65,2.65,0,0,1-1,1,3.11,3.11,0,0,1,2.07,3.11A3.56,3.56,0,0,1,316,71.22a5.17,5.17,0,0,1-3.39.91h-2.83Zm1.2,1.22v4.31h.76a4.8,4.8,0,0,0,2.61-.51,1.9,1.9,0,0,0,.74-1.68,1.82,1.82,0,0,0-.72-1.6,4.1,4.1,0,0,0-2.3-.5Zm0,5.53v4.83h1.77a3.68,3.68,0,0,0,2.3-.59,2.17,2.17,0,0,0,.74-1.81,2.19,2.19,0,0,0-.76-1.82,3.63,3.63,0,0,0-2.29-.6Z"/><path class="cls-5" d="M319.32,62.47h1.22V67.6a4.64,4.64,0,0,0,.64,2.8,2.51,2.51,0,0,0,2.11.82,3.07,3.07,0,0,0,1.47-.34,2.62,2.62,0,0,0,1-1,2.78,2.78,0,0,0,.32-.89,11.15,11.15,0,0,0,.1-1.79V62.47h1.24v9.67h-1.24v-1a3.43,3.43,0,0,1-1.26,1,4.13,4.13,0,0,1-1.68.31,3.67,3.67,0,0,1-3-1.13,6,6,0,0,1-.92-3.75Z"/><path class="cls-5" d="M329.39,69.09h1.27v0a2.19,2.19,0,0,0,.52,1.5,1.63,1.63,0,0,0,1.28.59,1.7,1.7,0,0,0,1.21-.46,1.52,1.52,0,0,0,.48-1.15,1.59,1.59,0,0,0-.38-1.12,3.54,3.54,0,0,0-1.38-.79,5,5,0,0,1-2.1-1.17,2.44,2.44,0,0,1-.49-1.6,2.57,2.57,0,0,1,.82-1.92,2.76,2.76,0,0,1,2-.79,2.72,2.72,0,0,1,2,.7,2.77,2.77,0,0,1,.78,2H334a1.56,1.56,0,0,0-.44-1.06,1.47,1.47,0,0,0-1.07-.38,1.36,1.36,0,0,0-1,.41,1.38,1.38,0,0,0-.4,1,1.45,1.45,0,0,0,.17.73,1.54,1.54,0,0,0,.55.53,4.38,4.38,0,0,0,1,.42q.67.2.9.3a2.61,2.61,0,0,1,1.76,2.66,2.71,2.71,0,0,1-.87,2.07,3.09,3.09,0,0,1-2.21.82,2.84,2.84,0,0,1-2.19-.89A3.56,3.56,0,0,1,329.39,69.09Z"/><path class="cls-5" d="M338.88,61.33h-1.24v-2h1.24Zm-1.24,10.8V62.47h1.24v9.67Z"/><path class="cls-5" d="M341.5,62.47h1.2v1.1a3.58,3.58,0,0,1,1.32-1,4.78,4.78,0,0,1,3.61.08A3.16,3.16,0,0,1,349,63.8a3.59,3.59,0,0,1,.48,1.22,11,11,0,0,1,.14,2.06v5.05h-1.22V66.72a3.82,3.82,0,0,0-.66-2.49,2.6,2.6,0,0,0-2.1-.77,3.11,3.11,0,0,0-1.48.34,2.5,2.5,0,0,0-1,1,2.82,2.82,0,0,0-.32.9,11.49,11.49,0,0,0-.09,1.76v4.7h-1.2Z"/><path class="cls-5" d="M361.64,67.7h-8.73a3.75,3.75,0,0,0,1.14,2.55,3.59,3.59,0,0,0,2.57,1,3.53,3.53,0,0,0,2-.56,3.71,3.71,0,0,0,1.34-1.57h1.41a5.54,5.54,0,0,1-1.88,2.46,4.71,4.71,0,0,1-2.8.86,4.78,4.78,0,0,1-3.57-1.5,5.28,5.28,0,0,1,0-7.26,4.92,4.92,0,0,1,3.65-1.44,4.61,4.61,0,0,1,3.56,1.5,5.55,5.55,0,0,1,1.38,3.9Zm-1.37-1.08A4.31,4.31,0,0,0,359,64.19a3.61,3.61,0,0,0-2.45-.82,3.44,3.44,0,0,0-2.38.88,3.81,3.81,0,0,0-1.2,2.37Z"/><path class="cls-5" d="M363.06,69.09h1.27v0a2.19,2.19,0,0,0,.52,1.5,1.63,1.63,0,0,0,1.28.59,1.7,1.7,0,0,0,1.21-.46,1.52,1.52,0,0,0,.48-1.15,1.59,1.59,0,0,0-.38-1.12,3.54,3.54,0,0,0-1.38-.79,5,5,0,0,1-2.1-1.17,2.44,2.44,0,0,1-.49-1.6A2.57,2.57,0,0,1,364.3,63a2.76,2.76,0,0,1,2-.79,2.72,2.72,0,0,1,2,.7,2.77,2.77,0,0,1,.78,2h-1.33a1.56,1.56,0,0,0-.44-1.06,1.47,1.47,0,0,0-1.07-.38,1.36,1.36,0,0,0-1,.41,1.38,1.38,0,0,0-.4,1,1.45,1.45,0,0,0,.17.73,1.54,1.54,0,0,0,.55.53,4.38,4.38,0,0,0,1,.42q.67.2.9.3a2.61,2.61,0,0,1,1.76,2.66,2.71,2.71,0,0,1-.87,2.07,3.09,3.09,0,0,1-2.21.82,2.84,2.84,0,0,1-2.19-.89A3.56,3.56,0,0,1,363.06,69.09Z"/><path class="cls-5" d="M370.68,69.09H372v0a2.19,2.19,0,0,0,.52,1.5,1.63,1.63,0,0,0,1.28.59,1.7,1.7,0,0,0,1.21-.46,1.52,1.52,0,0,0,.48-1.15,1.59,1.59,0,0,0-.38-1.12,3.54,3.54,0,0,0-1.38-.79,5,5,0,0,1-2.1-1.17,2.44,2.44,0,0,1-.49-1.6,2.57,2.57,0,0,1,.82-1.92,2.76,2.76,0,0,1,2-.79,2.72,2.72,0,0,1,2,.7,2.77,2.77,0,0,1,.78,2h-1.33a1.56,1.56,0,0,0-.44-1.06,1.47,1.47,0,0,0-1.07-.38,1.36,1.36,0,0,0-1,.41,1.38,1.38,0,0,0-.4,1,1.45,1.45,0,0,0,.17.73,1.54,1.54,0,0,0,.55.53,4.38,4.38,0,0,0,1,.42q.67.2.9.3a2.61,2.61,0,0,1,1.76,2.66,2.71,2.71,0,0,1-.87,2.07,3.09,3.09,0,0,1-2.21.82,2.84,2.84,0,0,1-2.19-.89A3.56,3.56,0,0,1,370.68,69.09Z"/><path class="cls-5" d="M387.53,72.14h-1.26V60.6h-2.56V59.34h6.37V60.6h-2.56Z"/><path class="cls-5" d="M392.65,72.14h-1.26V62.47h1.17v1.12a3.08,3.08,0,0,1,1-.94,2.7,2.7,0,0,1,1.26-.32v1.34a2.39,2.39,0,0,0-1.67.7,3,3,0,0,0-.51,1.93Z"/><path class="cls-5" d="M404.69,70.61a4,4,0,0,1-1.57,1.31,4.87,4.87,0,0,1-2.13.47,4.74,4.74,0,0,1-3.54-1.45,5.27,5.27,0,0,1,0-7.22,4.88,4.88,0,0,1,3.62-1.46,4.62,4.62,0,0,1,2,.45,4.08,4.08,0,0,1,1.55,1.3V62.47h1.21v9.67h-1.21Zm0-3.37a3.76,3.76,0,0,0-1.1-2.68,3.41,3.41,0,0,0-2.53-1.15,3.52,3.52,0,0,0-2.65,1.15,4,4,0,0,0-1.09,2.84,3.75,3.75,0,0,0,1.09,2.73A3.54,3.54,0,0,0,401,71.24a3.41,3.41,0,0,0,2.57-1.17A4,4,0,0,0,404.69,67.24Z"/><path class="cls-5" d="M409.73,61.33h-1.24v-2h1.24Zm-1.24,10.8V62.47h1.24v9.67Z"/><path class="cls-5" d="M412.35,62.47h1.2v1.1a3.58,3.58,0,0,1,1.32-1,4.78,4.78,0,0,1,3.61.08,3.16,3.16,0,0,1,1.31,1.13,3.59,3.59,0,0,1,.48,1.22,11,11,0,0,1,.14,2.06v5.05H419.2V66.72a3.82,3.82,0,0,0-.66-2.49,2.6,2.6,0,0,0-2.1-.77,3.11,3.11,0,0,0-1.48.34,2.5,2.5,0,0,0-1,1,2.82,2.82,0,0,0-.32.9,11.49,11.49,0,0,0-.09,1.76v4.7h-1.2Z"/><path class="cls-5" d="M424.26,61.33H423v-2h1.24ZM423,72.14V62.47h1.24v9.67Z"/><path class="cls-5" d="M426.88,62.47h1.2v1.1a3.58,3.58,0,0,1,1.32-1,4.78,4.78,0,0,1,3.61.08,3.16,3.16,0,0,1,1.31,1.13,3.59,3.59,0,0,1,.48,1.22,11,11,0,0,1,.14,2.06v5.05h-1.22V66.72a3.82,3.82,0,0,0-.66-2.49,2.6,2.6,0,0,0-2.1-.77,3.11,3.11,0,0,0-1.48.34,2.5,2.5,0,0,0-1,1,2.82,2.82,0,0,0-.32.9,11.49,11.49,0,0,0-.09,1.76v4.7h-1.2Z"/><path class="cls-5" d="M439.19,72.93a2.42,2.42,0,0,0,1,1.31,3.28,3.28,0,0,0,1.79.47,3.41,3.41,0,0,0,2.65-1.1,4.2,4.2,0,0,0,1-2.94v-.25a4.92,4.92,0,0,1-1.6,1.45,4.08,4.08,0,0,1-2,.49,4.89,4.89,0,0,1-3.62-1.45,5.25,5.25,0,0,1,0-7.21,5.11,5.11,0,0,1,5.64-1A4.37,4.37,0,0,1,445.65,64V62.47h1.21v8.07a5.74,5.74,0,0,1-1.27,4,4.45,4.45,0,0,1-3.5,1.42,4.85,4.85,0,0,1-2.82-.81,3.65,3.65,0,0,1-1.52-2.18Zm-.86-5.7a4,4,0,0,0,1.08,2.84,3.44,3.44,0,0,0,5.13,0,3.77,3.77,0,0,0,1.1-2.69,4,4,0,0,0-1.08-2.82A3.36,3.36,0,0,0,442,63.37a3.49,3.49,0,0,0-2.59,1.11A3.77,3.77,0,0,0,438.32,67.22Z"/></g></g></svg>