<svg xmlns="http://www.w3.org/2000/svg" xmlns:xlink="http://www.w3.org/1999/xlink" viewBox="0 0 358 132.4"><defs><style>.cls-1{fill:#d64545;}.cls-2{fill:#2e3192;}.cls-3{fill:url(#linear-gradient);}.cls-4{fill:#702828;}.cls-5{fill:url(#linear-gradient-2);}.cls-6{fill:url(#linear-gradient-3);}.cls-7{fill:url(#linear-gradient-4);}</style><linearGradient id="linear-gradient" x1="120.03" y1="30.5" x2="239.81" y2="30.5" gradientUnits="userSpaceOnUse"><stop offset="0" stop-color="#d4145a"/><stop offset="1" stop-color="#662d91"/></linearGradient><linearGradient id="linear-gradient-2" x1="204" y1="128.5" x2="358" y2="128.5" xlink:href="#linear-gradient"/><linearGradient id="linear-gradient-3" x1="0" y1="128.5" x2="155" y2="128.5" xlink:href="#linear-gradient"/><linearGradient id="linear-gradient-4" x1="0" y1="73.5" x2="358" y2="73.5" xlink:href="#linear-gradient"/></defs><title>virtualacademy</title><g id="Layer_2" data-name="Layer 2"><g id="Layer_1-2" data-name="Layer 1"><path class="cls-1" d="M20.92,115.69H16.77L6.11,85.95h6.23l6.5,19.83,6.52-19.83h6.19Z"/><path class="cls-1" d="M34.68,115.69V85.95H40.5v29.74Z"/><path class="cls-1" d="M52.75,115.69H46.93V85.95H54a38.93,38.93,0,0,1,5,.23,10.31,10.31,0,0,1,2.81.77,8.83,8.83,0,0,1,3.86,3.31,10,10,0,0,1-.57,10.84,8.46,8.46,0,0,1-5.17,3.05l7.44,11.54H60.43l-7.68-13.81Zm0-15.28H54a9.34,9.34,0,0,0,5.36-1.28,4.26,4.26,0,0,0,1.83-3.73,4,4,0,0,0-1.53-3.49,8.13,8.13,0,0,0-4.78-1.12H52.75Z"/><path class="cls-1" d="M87,85.95v5.23h-5.6v24.51h-5.8V91.18H70V85.95Z"/><path class="cls-1" d="M91.18,85.95H97v17.16q0,4,.85,5.59a3.49,3.49,0,0,0,5.82,0q.85-1.56.85-5.59V85.95h5.82v18.88a23.74,23.74,0,0,1-.35,4.72,7.76,7.76,0,0,1-1.17,2.76,8.74,8.74,0,0,1-3.35,3,12,12,0,0,1-9.44,0,8.74,8.74,0,0,1-3.35-3,7.76,7.76,0,0,1-1.16-2.66,23.36,23.36,0,0,1-.35-4.82Z"/><path class="cls-1" d="M121.06,109.46l-2.31,6.23h-6l11.54-29.74h5l11.38,29.74h-6.23l-2.35-6.23Zm9.11-5.52-3.51-9.58-3.6,9.58Z"/><path class="cls-1" d="M158.5,115.69H143.4V85.95h5.76v24.51h9.33Z"/><path class="cls-2" d="M171.77,109.46l-2.31,6.23h-6L175,85.95h5l11.38,29.74h-6.23l-2.35-6.23Zm9.11-5.52-3.51-9.58-3.6,9.58Z"/><path class="cls-2" d="M219.85,94.77h-7.11a8.25,8.25,0,0,0-3-2.57,8.9,8.9,0,0,0-4-.86,8.76,8.76,0,0,0-3.41.67,8.53,8.53,0,0,0-2.86,2,9.58,9.58,0,0,0-2.05,3.12,9.47,9.47,0,0,0-.72,3.63,9.58,9.58,0,0,0,2.63,6.85,8.51,8.51,0,0,0,6.42,2.77,9.18,9.18,0,0,0,3.93-.82,7,7,0,0,0,2.83-2.37h7.13a15.77,15.77,0,0,1-5.56,6.84,15.88,15.88,0,0,1-14.47,1,15.17,15.17,0,0,1-5.08-3.82,14.5,14.5,0,0,1-2.88-4.79,16.65,16.65,0,0,1-1-5.75,14.93,14.93,0,0,1,1.18-5.89,16,16,0,0,1,3.47-5.08,15,15,0,0,1,4.81-3.22,14.75,14.75,0,0,1,5.69-1.09,14.6,14.6,0,0,1,8.34,2.33A16.73,16.73,0,0,1,219.85,94.77Z"/><path class="cls-2" d="M227.68,109.46l-2.31,6.23h-6l11.54-29.74h5l11.38,29.74h-6.23l-2.35-6.23Zm9.11-5.52-3.51-9.58-3.6,9.58Z"/><path class="cls-2" d="M258.67,115.69H248.55V85.95h9.95a20.89,20.89,0,0,1,6.48.82,11.63,11.63,0,0,1,4.41,2.74,13.24,13.24,0,0,1,3.19,4.94,18.53,18.53,0,0,1,1.08,6.52,16.74,16.74,0,0,1-1.51,7.24,13.43,13.43,0,0,1-4.39,5.26,10.38,10.38,0,0,1-3.66,1.72A23,23,0,0,1,258.67,115.69Zm-.37-5.11q4.84,0,7.13-2.37t2.29-7.42a9.92,9.92,0,0,0-2.5-7.21,9.31,9.31,0,0,0-7-2.57h-3.8v19.57Z"/><path class="cls-2" d="M293.27,115.69H277.21V85.95h16.06v5.23H283V98h10.3v5.15H283v7.35h10.3Z"/><path class="cls-2" d="M303.89,115.69h-5.76V85.95h7.7l7.56,21.63,7.54-21.63h7.7v29.74h-5.74l.21-21.59-7.52,21.59h-4.39L303.65,94.1Z"/><path class="cls-2" d="M344.24,105v10.7h-5.82V105l-8.52-19h6.39l5.15,12.81,5.11-12.81h6.35Z"/><polygon class="cls-3" points="234.78 61 239.81 16.7 202.87 44.01 177.46 0 153.52 41.46 120.03 16.7 125.06 61 234.78 61"/><circle class="cls-4" cx="164.7" cy="128.7" r="3.7"/><circle class="cls-4" cx="179.5" cy="128.7" r="3.7"/><circle class="cls-4" cx="194.3" cy="128.7" r="3.7"/><polygon class="cls-5" points="346 125 204 125 204 132 346 132 354 132 358 132 358 125 354 125 346 125"/><polygon class="cls-6" points="6 125 0 125 0 132 6 132 11 132 155 132 155 125 11 125 6 125"/><polygon class="cls-7" points="353.92 70 351 70 6 70 5.92 70 0 70 0 77 5.92 77 6 77 351 77 353.92 77 358 77 358 70 353.92 70"/></g></g></svg>