<svg xmlns="http://www.w3.org/2000/svg" viewBox="0 0 514.81 132.42"><defs><style>.cls-1{fill:#fff;}.cls-2,.cls-3{fill:#f85b52;}.cls-2{stroke:#f85b52;stroke-miterlimit:10;stroke-width:3.16px;}</style></defs><title>logo-alt</title><g id="Layer_2" data-name="Layer 2"><g id="Layer_1-2" data-name="Layer 1"><path class="cls-1" d="M147.93,64.2h17.69q1,7.58,5.81,10.62,5.05,3.54,13.9,3.54,7.83,0,11.88-2.78a9.21,9.21,0,0,0,4-8.09q0-8.09-22.75-13.14l-.51-.25-2-.51q-12.89-2.78-17.19-5.81a15.1,15.1,0,0,1-7.08-8.09q-2.53-4.55-2.53-11.63,0-12.38,8.59-19.46,8.59-6.82,25-6.83,15.42,0,23.76,7.08,8.59,7.84,9.1,20.48H205.57A8.61,8.61,0,0,1,197.22,24a12.5,12.5,0,0,0-3.54-4.3q-4.55-3.28-12.39-3.29-7.58,0-10.87,2.78A9.15,9.15,0,0,0,166.64,27q0,6.83,14.66,10.11a44.31,44.31,0,0,0,6.32,1.52q4.55,1.52,8,2.4T201,42.46l7.08,3a21.87,21.87,0,0,1,7.84,7.84A24.7,24.7,0,0,1,218.71,65q0,13.65-9.1,21.23-9.1,7.08-25.78,7.08-17.19,0-25.78-7.33Q148.69,78.61,147.93,64.2Z"/><path class="cls-1" d="M302.94,91.26V13.4A8.78,8.78,0,0,1,305.59,7,8.77,8.77,0,0,1,312,4.3h8.85v87Z"/><path class="cls-1" d="M322.47,92.84H301.35V13.4a10.35,10.35,0,0,1,3.12-7.57A10.34,10.34,0,0,1,312,2.72h10.43Zm-17.95-3.16H319.3V5.88H312a7.18,7.18,0,0,0-5.33,2.19,7.2,7.2,0,0,0-2.19,5.33Z"/><path class="cls-1" d="M448.45,91.26V13.4A8.78,8.78,0,0,1,451.1,7a8.78,8.78,0,0,1,6.45-2.65h54.1V19.21h-45.5V37.92H500v5.81a9.06,9.06,0,0,1-9.1,9.1H466.14V75.08h45.5V91.26Z"/><path class="cls-1" d="M513.23,92.84H446.87V13.4A10.35,10.35,0,0,1,450,5.83a10.35,10.35,0,0,1,7.57-3.12h55.68V20.8h-45.5V36.34H501.6v7.4a10.64,10.64,0,0,1-10.68,10.68H467.72V73.5h45.5ZM450,89.67h60v-13h-45.5V51.25h26.36a7.48,7.48,0,0,0,7.52-7.52V39.5H464.56V17.63h45.5V5.88H457.55a7.18,7.18,0,0,0-5.33,2.19A7.2,7.2,0,0,0,450,13.4Z"/><path class="cls-1" d="M334.57,91.26V13.4A8.78,8.78,0,0,1,337.22,7a8.78,8.78,0,0,1,6.45-2.65h8.85v87Z"/><path class="cls-1" d="M354.1,92.84H333V13.4a10.35,10.35,0,0,1,3.12-7.57,10.35,10.35,0,0,1,7.57-3.12H354.1Zm-17.95-3.16h14.78V5.88h-7.27a7.18,7.18,0,0,0-5.33,2.19,7.2,7.2,0,0,0-2.19,5.33Z"/><path class="cls-2" d="M363,91.26V13.4A8.78,8.78,0,0,1,365.69,7a8.78,8.78,0,0,1,6.45-2.65H381V39.94L414.86,4.3h22.5L402.47,39.44l37.92,51.82H418.65l-22-30.84q-5.82-7.58-10.74-5.94T381,60.67V91.26Z"/><g id="Play"><path class="cls-3" d="M85.09,64.29,59.46,48.14a4.6,4.6,0,0,0-2.41-.38c-2.84,0-2.83,2.19-2.83,2.75v33a2.52,2.52,0,0,0,2.83,2.75,4.6,4.6,0,0,0,2.41-.38L85.09,69.75C87.19,68.5,86.83,67,86.83,67S87.19,65.54,85.09,64.29Z"/></g><path class="cls-1" d="M245,60.16V91.26H227V13.4A8.78,8.78,0,0,1,229.67,7a8.78,8.78,0,0,1,6.45-2.65h29.58q13.9,0,20.73,7.08,7.07,7.08,7.08,21,0,13.15-6.83,20.73-6.83,7.08-19.72,7.08Zm0-15.67h17.44q7.07,0,10.11-3,3.28-2.78,3.29-9.61a13.89,13.89,0,0,0-3-9.35,13.89,13.89,0,0,0-9.35-3H245Z"/><path class="cls-1" d="M246.55,92.84H225.43V13.4a10.35,10.35,0,0,1,3.12-7.57,10.34,10.34,0,0,1,7.57-3.12h29.58c9.67,0,17,2.54,21.87,7.56s7.52,12.42,7.52,22.08c0,9.13-2.43,16.46-7.23,21.79C283,59.2,276,61.75,267,61.75H246.55ZM228.6,89.67h14.79V58.58H267c8.11,0,14.36-2.22,18.58-6.59,4.22-4.69,6.38-11.31,6.38-19.63,0-8.79-2.22-15.47-6.61-19.86-4.24-4.4-10.83-6.61-19.61-6.61H236.12a7.19,7.19,0,0,0-5.33,2.19,7.19,7.19,0,0,0-2.19,5.33Zm33.81-43.6h-19V17.88h20A15.48,15.48,0,0,1,273.8,21.3l.17.17a15.48,15.48,0,0,1,3.41,10.38c0,5-1.28,8.61-3.8,10.77C271.26,44.91,267.5,46.08,262.41,46.08Zm-15.86-3.16h15.86c4.26,0,7.29-.86,9-2.57l.1-.09c1.81-1.53,2.73-4.36,2.73-8.4a12.32,12.32,0,0,0-2.57-8.23A12.5,12.5,0,0,0,263.42,21H246.55Z"/><path class="cls-1" d="M165.85,108.73a11.24,11.24,0,0,1,4.52.92,11.93,11.93,0,0,1,3.7,2.48,11.65,11.65,0,0,1,2.5,3.68,11.63,11.63,0,0,1,0,9,11.64,11.64,0,0,1-2.5,3.68,11.93,11.93,0,0,1-3.7,2.48,11.57,11.57,0,0,1-9,0,11.61,11.61,0,0,1-6.16-6.17,11.63,11.63,0,0,1,0-9,11.61,11.61,0,0,1,6.16-6.17A11.24,11.24,0,0,1,165.85,108.73Zm0,17.87a6.09,6.09,0,0,0,2.44-.49,6.3,6.3,0,0,0,3.34-3.34,6.29,6.29,0,0,0,0-4.87,6.3,6.3,0,0,0-3.34-3.34,6.3,6.3,0,0,0-4.87,0,6.3,6.3,0,0,0-3.34,3.34,6.3,6.3,0,0,0,0,4.87,6.29,6.29,0,0,0,3.34,3.34A6.09,6.09,0,0,0,165.87,126.6Z"/><path class="cls-1" d="M192.47,108.76h5.35V132H192l-7.59-13.54V132h-5.35V108.82h5.82l7.56,13.51Z"/><path class="cls-1" d="M214.58,132H200.76V108.73h5.35v17.91h8.48Z"/><path class="cls-1" d="M222.11,132h-5.35V108.73h5.35Z"/><path class="cls-1" d="M238.65,108.76H244V132h-5.79l-7.59-13.54V132h-5.35V108.82h5.82l7.56,13.51Z"/><path class="cls-1" d="M261.49,114.11h-9.55v3.51h7.75V123h-7.75v3.67h9.55V132h-14.9V108.79l14.9,0Z"/><path class="cls-1" d="M274.24,108.67a11.38,11.38,0,0,1,4.35,1.11,11.86,11.86,0,0,1,5.92,6.23,11.47,11.47,0,0,1,.87,4.46,11.23,11.23,0,0,1-.85,4.38,11.48,11.48,0,0,1-2.36,3.59,11.67,11.67,0,0,1-3.53,2.48,11.92,11.92,0,0,1-4.4,1.06H268.9V108.63h5.35Zm0,17.94a6.66,6.66,0,0,0,2.29-.65,6.5,6.5,0,0,0,1.83-1.33,6,6,0,0,0,1.66-4.16,6.37,6.37,0,0,0-.44-2.36,6.46,6.46,0,0,0-1.23-2,6.72,6.72,0,0,0-1.83-1.42,6.18,6.18,0,0,0-2.28-.68Z"/><path class="cls-1" d="M292,132h-5.35V108.73H292Z"/><path class="cls-1" d="M314,119v13h-5.38v-.57a9.86,9.86,0,0,1-1.82.46A12.29,12.29,0,0,1,305,132a11.82,11.82,0,0,1-4.4-.85,11.33,11.33,0,0,1-3.86-2.56,11.17,11.17,0,0,1-2.55-3.84,11.87,11.87,0,0,1-.84-4.38,12,12,0,0,1,.84-4.4,11.15,11.15,0,0,1,2.55-3.86,11.33,11.33,0,0,1,3.86-2.56,11.74,11.74,0,0,1,8.79,0,11.33,11.33,0,0,1,3.86,2.56l-3.8,3.8a6.06,6.06,0,0,0-2.09-1.38,6.36,6.36,0,0,0-4.75,0,6.05,6.05,0,0,0-2.09,1.38,6.29,6.29,0,0,0,0,8.92,6.13,6.13,0,0,0,1.85,1.28,6.29,6.29,0,0,0,2.12.54,6.55,6.55,0,0,0,2.17-.21,6,6,0,0,0,2-.95v-1.17H304V119Z"/><path class="cls-1" d="M321.88,132h-5.35V108.73h5.35Z"/><path class="cls-1" d="M338.36,108.67V114H333.9v18h-5.35V114h-4.43v-5.35Z"/><path class="cls-1" d="M353.92,132l-.92-2.82H345.7l-.95,2.82h-5.66L347,108.76h5.06l7.5,23.22Zm-6.39-8.16h3.76l-1.83-5.63Z"/><path class="cls-1" d="M375,132H361.14V108.73h5.35v17.91H375Z"/><path class="cls-1" d="M392.55,131.95a11.87,11.87,0,0,1-4.38-.84,11.17,11.17,0,0,1-3.84-2.55,11.79,11.79,0,0,1-2.51-3.78,11.59,11.59,0,0,1,2.51-12.67,11.33,11.33,0,0,1,3.86-2.56,11.78,11.78,0,0,1,4.38-.85,11.65,11.65,0,0,1,4.37.85,11.37,11.37,0,0,1,3.84,2.56L397,115.88a6.06,6.06,0,0,0-2.09-1.38,6.46,6.46,0,0,0-2.37-.46,6.33,6.33,0,0,0-2.36.46,6.08,6.08,0,0,0-2.07,1.38,6.59,6.59,0,0,0-1.36,2.06,6.19,6.19,0,0,0-.47,2.4,6.07,6.07,0,0,0,.47,2.39,6.65,6.65,0,0,0,1.36,2,6.08,6.08,0,0,0,2.07,1.38,6.33,6.33,0,0,0,2.36.46,6.46,6.46,0,0,0,2.37-.46,6.06,6.06,0,0,0,2.09-1.38l3.76,3.8a11.22,11.22,0,0,1-3.83,2.55A11.84,11.84,0,0,1,392.55,131.95Z"/><path class="cls-1" d="M412.37,108.73a11.24,11.24,0,0,1,4.52.92,11.93,11.93,0,0,1,3.7,2.48,11.65,11.65,0,0,1,2.5,3.68,11.63,11.63,0,0,1,0,9,11.64,11.64,0,0,1-2.5,3.68,11.93,11.93,0,0,1-3.7,2.48,11.57,11.57,0,0,1-9,0,11.61,11.61,0,0,1-6.16-6.17,11.63,11.63,0,0,1,0-9,11.61,11.61,0,0,1,6.16-6.17A11.24,11.24,0,0,1,412.37,108.73Zm0,17.87a6.09,6.09,0,0,0,2.44-.49,6.3,6.3,0,0,0,3.34-3.34,6.3,6.3,0,0,0,0-4.87,6.31,6.31,0,0,0-3.34-3.34,6.3,6.3,0,0,0-4.87,0,6.31,6.31,0,0,0-3.34,3.34,6.3,6.3,0,0,0,0,4.87,6.3,6.3,0,0,0,3.34,3.34A6.08,6.08,0,0,0,412.38,126.6Z"/><path class="cls-1" d="M434.43,132a8.74,8.74,0,0,1-6.17-2.5,9.06,9.06,0,0,1-1.95-2.85,8.87,8.87,0,0,1-.71-3.38V108.73H431v14.49a3.33,3.33,0,0,0,1,2.44,3.48,3.48,0,0,0,2.47,1,3.21,3.21,0,0,0,1.33-.29,3.69,3.69,0,0,0,1.11-.76,3.26,3.26,0,0,0,.73-1.11,3.64,3.64,0,0,0,.25-1.36V108.73h5.35v14.36a8.32,8.32,0,0,1-.65,3.42,8.86,8.86,0,0,1-1.87,2.82,9,9,0,0,1-2.78,1.91,8.63,8.63,0,0,1-3.4.74Z"/><path class="cls-1" d="M453.44,126c-.27,0-.55.07-.82.1l-.85.06V132h-5.35V108.86h5.35a10.44,10.44,0,0,1,3.73.73,10.28,10.28,0,0,1,3.05,1.86,8.6,8.6,0,0,1,2.06,2.72,7.57,7.57,0,0,1,.74,3.32,7.68,7.68,0,0,1-.79,3.46,8.35,8.35,0,0,1-2.21,2.76l5.12,8.28h-6.29Zm-1.68-5.22a5.57,5.57,0,0,0,1.63-.3,4.87,4.87,0,0,0,1.36-.71,3.37,3.37,0,0,0,.92-1,2.49,2.49,0,0,0,.33-1.25,2.4,2.4,0,0,0-.33-1.23,3.46,3.46,0,0,0-.92-1,4.92,4.92,0,0,0-1.36-.71,5.6,5.6,0,0,0-1.63-.3Z"/><path class="cls-1" d="M472.71,132.42a8.25,8.25,0,0,1-2.2-.3,7.45,7.45,0,0,1-2.07-.93,7.77,7.77,0,0,1-2.66-2.86,8,8,0,0,1-.95-3.84h5.35a2.32,2.32,0,0,0,.41,1.47,3,3,0,0,0,.73.71,2.39,2.39,0,0,0,1.23.41,2.8,2.8,0,0,0,1.3-.25,2.12,2.12,0,0,0,.71-.47,2.57,2.57,0,0,0,.41-.55,1.51,1.51,0,0,0,.17-.52,2.64,2.64,0,0,0,0-.82,1.66,1.66,0,0,0-.17-.54,2.17,2.17,0,0,0-.41-.55,2.74,2.74,0,0,0-.71-.49,7,7,0,0,0-.74-.29l-.84-.28q-.79-.25-1.65-.57a9.18,9.18,0,0,1-1.71-.85,6.68,6.68,0,0,1-1.87-1.74,6.9,6.9,0,0,1-1.31-4.73,6.55,6.55,0,0,1,.71-2.45,7,7,0,0,1,1.42-1.87,6.82,6.82,0,0,1,1.9-1.25,6.89,6.89,0,0,1,2.25-.55,7.4,7.4,0,0,1,2.44.22,7.1,7.1,0,0,1,2.17.9,6.94,6.94,0,0,1,1.68,1.49,6.48,6.48,0,0,1,1.08,1.95,6.75,6.75,0,0,1,.38,2.25h-5.32a1.09,1.09,0,0,0-.46-1,3.17,3.17,0,0,0-.81-.38l-.3,0a1.5,1.5,0,0,0-.54,0,1.9,1.9,0,0,0-.62.22,1.24,1.24,0,0,0-.51.55,1.41,1.41,0,0,0-.09,1.06,1.51,1.51,0,0,0,.63.87,7,7,0,0,0,1,.46q.54.21,1.14.4l1.09.35q.55.19,1.12.44a7.48,7.48,0,0,1,3.25,2.78,7.49,7.49,0,0,1-3.25,10.91,7.51,7.51,0,0,1-1.67.55A8.52,8.52,0,0,1,472.71,132.42Z"/><path class="cls-1" d="M497.35,114.11h-9.55v3.51h7.75V123h-7.75v3.67h9.55V132h-14.9V108.79l14.9,0Z"/><path class="cls-1" d="M507,132.42a8.25,8.25,0,0,1-2.2-.3,7.45,7.45,0,0,1-2.07-.93,7.77,7.77,0,0,1-2.66-2.86,8,8,0,0,1-.95-3.84h5.35a2.32,2.32,0,0,0,.41,1.47,3,3,0,0,0,.73.71,2.39,2.39,0,0,0,1.23.41,2.8,2.8,0,0,0,1.3-.25,2.12,2.12,0,0,0,.71-.47,2.57,2.57,0,0,0,.41-.55,1.51,1.51,0,0,0,.17-.52,2.64,2.64,0,0,0,0-.82,1.66,1.66,0,0,0-.17-.54,2.17,2.17,0,0,0-.41-.55,2.74,2.74,0,0,0-.71-.49,7,7,0,0,0-.74-.29l-.84-.28q-.79-.25-1.65-.57a9.18,9.18,0,0,1-1.71-.85,6.68,6.68,0,0,1-1.87-1.74,6.9,6.9,0,0,1-1.31-4.73,6.55,6.55,0,0,1,.71-2.45,7,7,0,0,1,1.42-1.87,6.82,6.82,0,0,1,1.9-1.25,6.89,6.89,0,0,1,2.25-.55,7.4,7.4,0,0,1,2.44.22,7.1,7.1,0,0,1,2.17.9,6.94,6.94,0,0,1,1.68,1.49,6.48,6.48,0,0,1,1.08,1.95,6.75,6.75,0,0,1,.38,2.25h-5.32a1.09,1.09,0,0,0-.46-1,3.17,3.17,0,0,0-.81-.38l-.3,0a1.5,1.5,0,0,0-.54,0,1.9,1.9,0,0,0-.62.22,1.24,1.24,0,0,0-.51.55,1.41,1.41,0,0,0-.09,1.06,1.51,1.51,0,0,0,.63.87,7,7,0,0,0,1,.46q.54.21,1.14.4l1.09.35q.55.19,1.12.44a7.48,7.48,0,0,1,3.25,2.78,7.49,7.49,0,0,1-3.25,10.91,7.51,7.51,0,0,1-1.67.55A8.52,8.52,0,0,1,507,132.42Z"/><path class="cls-3" d="M128.52,78.15,120,66.57a2.19,2.19,0,0,1,0-2.52l8.27-11.73a2.17,2.17,0,0,0-.75-3.15L114.8,42.43a2.12,2.12,0,0,1-1.11-2.27L116,26A2.16,2.16,0,0,0,114,23.49l-14.33-.56a2.16,2.16,0,0,1-2-1.56l-4-13.82a2.16,2.16,0,0,0-2.95-1.38L77.51,11.89A2.24,2.24,0,0,1,75,11.36L65.42.71a2.19,2.19,0,0,0-3.26,0L52.75,11.6a2.13,2.13,0,0,1-2.45.57L37,6.75a2.17,2.17,0,0,0-2.9,1.43L30.36,22a2.2,2.2,0,0,1-1.95,1.6l-14.33.85a2.18,2.18,0,0,0-2,2.56L14.7,41.14a2.15,2.15,0,0,1-1.06,2.27l-12.54,7a2.18,2.18,0,0,0-.7,3.16L8.91,65.13a2.19,2.19,0,0,1,0,2.52L.69,79.38a2.17,2.17,0,0,0,.75,3.15l12.68,6.74a2.12,2.12,0,0,1,1.11,2.27L12.89,105.7A2.16,2.16,0,0,0,15,108.21l14.33.56a2.16,2.16,0,0,1,2,1.56l4,13.79a2.16,2.16,0,0,0,2.95,1.38l13.18-5.71a2.24,2.24,0,0,1,2.48.53L63.54,131a2.19,2.19,0,0,0,3.26,0l9.41-10.84a2.13,2.13,0,0,1,2.45-.57l13.28,5.43a2.17,2.17,0,0,0,2.9-1.43l3.76-13.84a2.2,2.2,0,0,1,1.95-1.6l14.33-.85a2.18,2.18,0,0,0,2-2.56l-2.63-14.11a2.15,2.15,0,0,1,1.06-2.27l12.54-7A2.09,2.09,0,0,0,128.52,78.15ZM64.6,104.82a38.95,38.95,0,1,1,38.84-39.05A39,39,0,0,1,64.6,104.82Z"/></g></g></svg>