<?xml version="1.0"?>
<svg xmlns="http://www.w3.org/2000/svg" height="512px" viewBox="0 0 512 512" width="512px"><path d="m271 292.957031c50.070312-20.28125 93.34375-22.3125 120-22.074219v-180c-27.042969-.125-70.257812 1.972657-120 24.789063zm0 0" fill="#FFFFFF"/><path d="m181 151h-30v-58.949219c-11.355469-.933593-21.5625-1.191406-30-1.167969v180h1.214844c26.261718 0 69.425781 2.152344 118.785156 22.082032v-177.292969c-21.496094-9.863281-41.738281-15.914063-60-19.460937zm0 0" fill="#FFFFFF"/><path d="m0 451h181v31h-30v30h210v-30h-30v-31h181v-60h-512zm0 0" fill="#FFFFFF"/><path d="m0 0v361h512v-361zm421 301-22.03125-.058594c-27.054688-.265625-77.59375-.863281-136.257812 28.476563l-6.710938 3.355469-6.710938-3.355469c-58.59375-29.296875-109.128906-28.753907-136.332031-28.476563l-21.957031.058594v-240l21.695312-.058594c26.601563-.324218 80.960938-.863281 143.304688 28.386719 62.328125-29.25 116.6875-28.710937 143.363281-28.371094l21.636719.042969zm0 0" fill="#FFFFFF"/></svg>
