<?xml version="1.0"?>
<svg xmlns="http://www.w3.org/2000/svg" height="512px" viewBox="0 -9 512 512" width="512px"><path d="m117.757812 160.597656v-4.367187c0-35.78125 29.113282-64.894531 64.894532-64.894531s64.894531 29.113281 64.894531 64.894531v4.367187h61.628906c10.433594 0 20.441407 1.867188 29.707031 5.273438v-9.640625c0-86.144531-70.085937-156.230469-156.230468-156.230469-86.144532 0-156.230469 70.085938-156.230469 156.230469v9.640625c9.265625-3.410156 19.273437-5.273438 29.707031-5.273438zm0 0" fill="#FFFFFF"/><path d="m224.628906 385.863281c-6.703125 16.613281-22.992187 28.371094-41.976562 28.371094-24.941406 0-45.234375-20.292969-45.234375-45.234375v-56.742188c0-24.941406 20.292969-45.234374 45.234375-45.234374 18.984375 0 35.273437 11.753906 41.976562 28.371093h140.675782v-48.507812c0-30.949219-25.179688-56.128907-56.128907-56.128907h-253.046875c-30.949218 0-56.128906 25.179688-56.128906 56.128907v191.238281c0 30.949219 25.179688 56.128906 56.128906 56.128906h253.046875c30.949219 0 56.128907-25.179687 56.128907-56.128906v-52.261719zm0 0" fill="#FFFFFF"/><path d="m458.851562 249.40625c-29.308593 0-53.152343 23.84375-53.152343 53.152344 0 8.230468 1.882812 16.027344 5.238281 22.992187h-213.207031v-13.292969c0-8.328124-6.75-15.078124-15.078125-15.078124s-15.078125 6.75-15.078125 15.078124v56.742188c0 8.324219 6.75 15.078125 15.078125 15.078125s15.078125-6.753906 15.078125-15.078125v-13.292969h213.207031c-3.355469 6.960938-5.238281 14.761719-5.238281 22.992188 0 29.304687 23.84375 53.148437 53.152343 53.148437 29.304688 0 53.148438-23.84375 53.148438-53.148437 0-14.917969-6.183594-28.410157-16.117188-38.070313 9.929688-9.664062 16.117188-23.15625 16.117188-38.074218 0-29.304688-23.84375-53.148438-53.148438-53.148438zm0 152.285156c-12.679687 0-22.996093-10.316406-22.996093-22.992187 0-12.679688 10.316406-22.992188 22.996093-22.992188 12.675782 0 22.992188 10.3125 22.992188 22.992188 0 12.679687-10.316406 22.992187-22.992188 22.992187zm0-76.140625c-12.679687 0-22.996093-10.316406-22.996093-22.992187 0-12.679688 10.316406-22.996094 22.996093-22.996094 12.675782 0 22.992188 10.316406 22.992188 22.996094 0 12.675781-10.316406 22.992187-22.992188 22.992187zm0 0" fill="#FFFFFF"/></svg>
